<?xml version="1.0" encoding="UTF-8" standalone="no"?>
<!-- Generator: Adobe Illustrator 15.1.0, SVG Export Plug-In . SVG Version: 6.00 Build 0)  -->

<svg
   xmlns:dc="http://purl.org/dc/elements/1.1/"
   xmlns:cc="http://creativecommons.org/ns#"
   xmlns:rdf="http://www.w3.org/1999/02/22-rdf-syntax-ns#"
   xmlns:svg="http://www.w3.org/2000/svg"
   xmlns="http://www.w3.org/2000/svg"
   xmlns:sodipodi="http://sodipodi.sourceforge.net/DTD/sodipodi-0.dtd"
   xmlns:inkscape="http://www.inkscape.org/namespaces/inkscape"
   version="1.1"
   id="Layer_1"
   x="0px"
   y="0px"
   width="100"
   height="100"
   viewBox="0 0 100 100"
   enable-background="new 0 0 88.061 100"
   xml:space="preserve"
   inkscape:version="0.48.1 r9760"
   sodipodi:docname="timer.svg"
   inkscape:export-filename="/Users/asc/Desktop/plane-sm-gr.png"
   inkscape:export-xdpi="66.599998"
   inkscape:export-ydpi="66.599998"><metadata
   id="metadata15"><rdf:RDF><cc:Work
       rdf:about=""><dc:format>image/svg+xml</dc:format><dc:type
         rdf:resource="http://purl.org/dc/dcmitype/StillImage" /><dc:title></dc:title></cc:Work></rdf:RDF></metadata><defs
   id="defs13" /><sodipodi:namedview
   pagecolor="#ffffff"
   bordercolor="#666666"
   borderopacity="1"
   objecttolerance="10"
   gridtolerance="10"
   guidetolerance="10"
   inkscape:pageopacity="0"
   inkscape:pageshadow="2"
   inkscape:window-width="836"
   inkscape:window-height="721"
   id="namedview11"
   showgrid="false"
   showguides="true"
   inkscape:guide-bbox="true"
   inkscape:zoom="2.62"
   inkscape:cx="47.661751"
   inkscape:cy="50"
   inkscape:window-x="0"
   inkscape:window-y="0"
   inkscape:window-maximized="0"
   inkscape:current-layer="Layer_1" />
<path
   sodipodi:type="arc"
   style="fill:#f9f9f9"
   id="path3136"
   sodipodi:cx="65.076332"
   sodipodi:cy="61.259541"
   sodipodi:rx="39.122139"
   sodipodi:ry="39.503819"
   d="m 104.19847,61.259541 a 39.122139,39.503819 0 1 1 -78.244277,0 39.122139,39.503819 0 1 1 78.244277,0 z"
   transform="translate(-13.358779,-4.9618321)" /><path
   d="M 16.393418,27.689151 C 23.263484,19.093395 33.148859,13.088386 44.399499,11.365638 L 39.26789,4.8617896 C 36.598782,2.0533313 30.827815,3.2554688 23.569668,7.5187976 16.311521,11.78118 12.403717,16.262219 13.459075,20.017242 l 2.934343,7.671909 z"
   id="path3"
   inkscape:connector-curvature="0"
   style="fill:#808080" />

<path
   d="M 85.774383,27.689151 C 78.904317,19.093395 69.018942,13.088386 57.768301,11.365638 l 5.13161,-6.5038484 C 65.569018,2.0533313 71.339985,3.2554688 78.598133,7.5187976 85.85628,11.78118 89.764084,16.262219 88.708726,20.017242 l -2.934343,7.671909 z"
   id="path7"
   inkscape:connector-curvature="0"
   style="fill:#808080" />
<path
   d="m 51.083435,14.644539 c -22.594346,0 -40.976565,18.696552 -40.976565,41.677257 C 10.10687,79.304395 28.489089,98 51.083435,98 73.677781,98 92.06,79.303448 92.06,56.321796 92.060931,33.341091 73.678711,14.644539 51.083435,14.644539 z m 0,77.672285 c -19.513891,0 -35.388936,-16.147453 -35.388936,-35.994081 0,-19.846629 15.875045,-35.995028 35.388936,-35.995028 19.513891,0 35.388936,16.147453 35.388936,35.994081 0,19.846629 -15.875045,35.995028 -35.388936,35.995028 z"
   id="path9"
   inkscape:connector-curvature="0"
   style="fill:#808080" />
<path
   id="path3127"
   d="m 77.534804,52.721161 c 3.954658,0.0053 3.954659,5.89001 -0.110685,5.896884 l -16.55225,0 -13.960012,22.927042 -6.102023,0 7.577803,-22.817046 -12.371412,-10e-7 -4.178166,5.263357 -4.821412,0 2.535026,-8.129567 -2.535026,-8.156008 4.821413,0 4.178165,5.235329 12.371412,-10e-7 -7.578339,-22.817574 6.10256,-1e-6 13.96001,22.597585 16.662936,1e-6 0,0 z"
   inkscape:connector-curvature="0"
   style="fill:#000000" /></svg>